<svg id="Layer_1" data-name="Layer 1" xmlns="http://www.w3.org/2000/svg" viewBox="0 0 1000 278.67"><defs><style>.cls-1{fill:#6c9974;}.cls-2{fill:#192e56;}.cls-3{fill:#fff;}</style></defs><path class="cls-1" d="M680,141.71a57.1,57.1,0,0,0,0,8.07c.62,7.56.89,15.14,1,22.71a66.72,66.72,0,0,1-.53,10.76c-.28,2-.46,2.11-2.38,2.12q-12,0-23.93,0c-1.88,0-1.9,0-1.91-2q-.08-17.94-.12-35.89c-.05-15.57,0-31.13-.16-46.69-.18-14.62-.17-29.24-.28-43.86,0-.55,0-1.1,0-1.65-.1-1.09.32-1.56,1.46-1.52,1.72.07,3.44,0,5.16,0h17.84c2.59,0,2.59,0,2.69,2.5a46,46,0,0,0,.54,6.51c.81,0,1.14-.62,1.58-1A39.22,39.22,0,0,1,705,52.19a49.07,49.07,0,0,1,22.5,3.45A45.09,45.09,0,0,1,752.28,80.9c6.26,15.2,6.14,30.58-.56,45.56-6.11,13.67-17,22-31.57,25.25-14.2,3.12-27.13,0-38.54-9.15A2.52,2.52,0,0,0,680,141.71Zm26.19-66c-12.5,0-20.23,5.34-23.91,15.08a31.43,31.43,0,0,0-.6,21.15c3.14,9.82,9.6,16,20.16,17,9.39.89,17.07-2.39,21.78-10.73,5.93-10.49,5.7-21.28-.27-31.7C719.17,79.22,712.46,75.82,706.19,75.73Z"/><path class="cls-1" d="M289.59,153.27a94.6,94.6,0,0,1-40.13-8.12,83.92,83.92,0,0,1-11.83-6.68A1.62,1.62,0,0,1,237,136c3.27-6.58,6.45-13.2,9.68-19.8.68-1.39.72-1.38,2-.47a74.05,74.05,0,0,0,34.87,13.39c6.4.75,12.81.54,19-1.69a18.51,18.51,0,0,0,7.06-4.06,9,9,0,0,0,1.86-10.95,16.12,16.12,0,0,0-8.35-7.55,86.9,86.9,0,0,0-15-4.68c-7.73-1.9-15.55-3.51-23.1-6.1a66.29,66.29,0,0,1-9.29-3.89c-9.61-5-15.69-12.45-16.51-23.62-.92-12.39,2.33-23.22,11.86-31.68A46,46,0,0,1,266.93,26a74.78,74.78,0,0,1,23.26-3.87A88.73,88.73,0,0,1,329,29.81a64.38,64.38,0,0,1,6.38,3.46,1.42,1.42,0,0,1,.66,2.11c-2.87,6.68-5.68,13.38-8.54,20.07-.56,1.32-.63,1.34-2.08.56a98.6,98.6,0,0,0-16.76-7.24,53.44,53.44,0,0,0-20.35-2.59,30.11,30.11,0,0,0-11.52,2.88,16.79,16.79,0,0,0-6,4.82c-3.43,4.6-2.71,9.73,1.86,13.19a31.43,31.43,0,0,0,9,4.41,165.23,165.23,0,0,0,18.61,4.74,96.86,96.86,0,0,1,21.31,7,53.41,53.41,0,0,1,5.14,2.82c7.85,4.88,12.84,11.74,14.36,21,1.5,9,.32,17.61-4.5,25.51a38.31,38.31,0,0,1-14.84,13.68,58.14,58.14,0,0,1-21.38,6.55C296.77,153.21,293.18,153.2,289.59,153.27Z"/><path class="cls-1" d="M993,54a25.62,25.62,0,0,1-1.9,6.44c-4.62,11.7-9.2,23.42-14,35.06q-12.32,29.91-24.89,59.73a97.75,97.75,0,0,1-8.54,16.15c-5.8,8.76-14,13.64-24.29,15.17-11.66,1.75-22.54-.65-32.71-6.49-1.79-1-1.8-1.07-.94-2.81q4.47-9,9-18.06c.2-.41.3-.91.93-1.16a32,32,0,0,0,7.63,4.28c3.51,1.25,7.05,2,10.8,1.25a12.8,12.8,0,0,0,8.36-5.57c.22-.33.42-.66.61-1,2.77-4.93,2.85-5.76.72-11-7.46-18.23-15.43-36.24-23.34-54.28C895.7,80.94,891,70.1,886.66,59.14a22.05,22.05,0,0,1-1.58-5,3.18,3.18,0,0,1,2.18-.35q12,0,24,0c2.22,0,2-.3,3,2.08q12.15,29.49,24.29,59c.31.77.41,1.68,1.36,2.3,1.3-3,2.59-6,3.85-9q11-26.26,22.07-52.53a2.34,2.34,0,0,1,2.52-1.81c7.74.08,15.49,0,23.24,0A2.38,2.38,0,0,1,993,54Z"/><path class="cls-1" d="M550,83.48c-.56-.25-.71-.81-1-1.28-2.9-5.19-5.77-10.39-8.66-15.57-1.07-1.92-1.06-1.63.63-3a44.82,44.82,0,0,1,15.15-7.75c14.53-4.38,29.2-5.16,43.94-1.22a36.43,36.43,0,0,1,19.54,12.25,29.39,29.39,0,0,1,4.67,7.83,47.78,47.78,0,0,1,3.61,17.55c-.13,18.53-.05,37.07-.05,55.6,0,.63,0,1.26,0,1.88.08,1.1-.37,1.62-1.49,1.49a3.73,3.73,0,0,0-.47,0H604.11c-2.09,0-2.5-.37-2.54-2.43-.06-2.5,0-5,0-7.44-.72-.37-.95.19-1.22.5-5,5.69-11.49,8.48-18.64,10.07a43.86,43.86,0,0,1-28-2.65c-8.82-3.94-15.09-10.32-17.21-20-1.73-7.91-1-15.58,3.59-22.51,3.45-5.14,8.49-8.22,14.18-10.31A64.28,64.28,0,0,1,570,93.08a178.07,178.07,0,0,1,25.3-.48c3.71.16,3.91-.11,3.16-3.85C597,81.12,591.22,76.2,583,75.26c-11.16-1.29-21.35,1.68-31,7.09-.61.34-1.2.72-1.8,1.08C550.19,83.47,550.1,83.46,550,83.48ZM586.28,110c-3.67,0-7.35,0-11,0a9,9,0,0,0-4.49,1.11,19,19,0,0,0-5.52,4.67c-3,3.62-2.48,10.66,1.84,13.89a13.85,13.85,0,0,0,4.54,2.39,25,25,0,0,0,19.75-2A15.15,15.15,0,0,0,599.2,119a43.9,43.9,0,0,0,.48-7.24c0-1.66,0-1.7-1.66-1.71C594.11,110,590.2,110,586.28,110Z"/><path class="cls-1" d="M405.66,52.2c9.62-.07,18.23,1.58,26.24,5.76A39,39,0,0,1,449,75.15c.82,1.59.81,1.62-.73,2.48-6.41,3.59-12.84,7.14-19.25,10.75-.93.52-1.35.53-1.94-.54a22.53,22.53,0,0,0-19.26-12c-16.53-1-25.91,11.51-26.6,24.33a31.89,31.89,0,0,0,1.86,13.14c3.31,8.76,9.76,13.84,18.85,15.38,8.51,1.45,15.94-.95,21.89-7.39a19.06,19.06,0,0,0,3.15-4.65c.44-.92.86-1.3,2-.75q9.87,4.92,19.8,9.7a1.85,1.85,0,0,1,1,2.5,18,18,0,0,1-2.15,4.41c-5.21,8.5-12.74,14.09-22,17.34a58.08,58.08,0,0,1-27.75,2.53,59.67,59.67,0,0,1-18.74-5.73c-14.24-7.2-22.88-18.85-25.8-34.34C349.92,94.62,354.8,79,367.63,66.21c7.26-7.26,16.26-11.23,26.3-13A63.78,63.78,0,0,1,405.66,52.2Z"/><path class="cls-1" d="M884.47,78.41c-4.63.07-8.69.12-12.74.21-3.44.08-6.88.26-10.32.3-1.25,0-1.68.52-1.57,1.69,0,.54,0,1.09,0,1.64v66.16c0,3.25.23,2.85-2.93,2.86h-23c-.54,0-1.09,0-1.64,0-.77,0-1.17-.3-1.14-1.1,0-.63,0-1.25,0-1.88V82.36c0-.47,0-.94,0-1.41,0-1.93,0-1.94-1.89-2-3.51-.16-7-.3-10.54-.45-1.92-.09-2-.1-2-2q0-9.15,0-18.3c0-2,0-2,2.13-2.1,3.51-.15,7-.3,10.54-.47,1.64-.08,1.69-.09,1.68-1.74a47.06,47.06,0,0,1,2.24-15c4.19-12.8,13-20.27,26.18-22.7,9.91-1.82,19.45-.26,28.67,3.57,1.57.66,1.57.69,1.09,2.41q-2.46,8.93-5,17.83c-.53,1.9-.55,1.9-2.46,1.06a33.91,33.91,0,0,0-8.22-2.66,11.55,11.55,0,0,0-13.46,9.72,30.91,30.91,0,0,0-.39,5.6c.06,2.45.05,2.46,2.43,2.47h19c2.68,0,2.55-.21,2.55,2.53,0,5.47,0,10.95,0,16.42A4.77,4.77,0,0,0,884.47,78.41Z"/><path class="cls-2" d="M103.45,78.52c1.7,2.77,3.2,5.13,3.68,8,.16.92,1.05.76,1.74.77,4,0,8,0,12,0a8.6,8.6,0,0,1,2.91.18,3.38,3.38,0,0,1-.66,1.64c-1.18,2.2-2.48,4.35-3.52,6.62a3.52,3.52,0,0,1-3.93,2.41c-2.32-.19-4.68.06-7,0-1,0-1.47.22-1.76,1.3C104.17,109.54,97,115,87.46,117.94a25.12,25.12,0,0,1-6,1,3.46,3.46,0,0,0-2.09.54,6.85,6.85,0,0,0,1.6,2.21q9.84,11.51,19.71,23c2,2.32,3.89,4.7,5.91,7a21,21,0,0,0,8.56,6,12.89,12.89,0,0,0,11.7-1,44.63,44.63,0,0,0,8.29-6.85c.81-.82,1.56-1.71,2.74-3,.54,5.31,1,10,1.52,14.94l13.79-5.87a30,30,0,0,1-4.83,6.29c-6.23,6.56-13.51,11.34-22.6,12.85a29.22,29.22,0,0,1-18.66-2.85,32.22,32.22,0,0,1-9.58-7.4q-17.85-20.4-35.19-41.22a8.14,8.14,0,0,1-2.26-6.32,45.82,45.82,0,0,0,.05-5.86c0-1,.36-1.38,1.35-1.36,2.11,0,4.22,0,6.33.06a39.24,39.24,0,0,0,12.06-1.36,18.63,18.63,0,0,0,7.18-3.83,12.18,12.18,0,0,0,4.08-6.63h-35c-.2-.89.29-1.36.57-1.89,1.09-2.07,2.36-4.07,3.28-6.21s2.27-2.94,4.67-2.89c7.66.16,15.33.07,23,0,.81,0,2,.47,2.38-.34s-.46-1.74-1-2.44c-2.53-3.14-6-4.64-9.84-5.41s-8-.53-11.94-.54c-3,0-5.94.07-8.91.09a6.12,6.12,0,0,1-2.47-.26l5.26-9.7a1.57,1.57,0,0,1,1.52-.9c.39,0,.78,0,1.17,0h59.56c.38.82-.2,1.29-.45,1.8-1.24,2.44-2.58,4.82-3.76,7.28a2.66,2.66,0,0,1-2.84,1.77C112.18,78.44,108,78.52,103.45,78.52Z"/><path class="cls-1" d="M493.05,64.92c1.39-1.23,2.68-2.35,4-3.49,6.26-5.54,13.72-8.25,21.92-9.14,1.71-.19,3.43-.23,5.15-.37,1.16-.1,1.7.3,1.7,1.57,0,7.82,0,15.64,0,23.46,0,1.13-.46,1.51-1.55,1.5-3.05,0-6.11.11-9.15,0a16.18,16.18,0,0,0-12.15,4.65,27.37,27.37,0,0,0-9.09,19.17c-.63,10.56.17,21.1.26,31.65,0,4.92,0,9.84-.18,14.76-.11,2.47-.3,2.63-2.78,2.63h-23.7c-2.13,0-2.15,0-2.15-2.21V55.9c0-2.13,0-2.15,2.22-2.15H490c2.23,0,2.24,0,2.42,2.37C492.67,59.08,492.86,62,493.05,64.92Z"/><path class="cls-1" d="M311.49,229.53c0-.76.08-1.23.08-1.69,0-3,0-3.11-3.09-3.23a93,93,0,0,0-10.56.13,129.14,129.14,0,0,1-21.09,0,38.41,38.41,0,0,0-7.73,0c-1.15.12-1.59.59-1.55,1.78.07,2.7,0,5.41,0,8.33a43.45,43.45,0,0,1,4.91-1.64,9.16,9.16,0,0,1,10.66,5.25c1.83,3.86,1.75,7.88.71,11.92a20.9,20.9,0,0,1-3.37,6.92c-.65.89-1.25,1.27-2.31.58a26.24,26.24,0,0,0-3.3-1.78c-1.08-.5-1.38-1.05-.68-2.15a26.39,26.39,0,0,0,2.54-5.53,12.08,12.08,0,0,0,.8-5.05c-.28-2.92-2.26-4.28-5.07-3.53a12,12,0,0,0-2.59,1.09,4.06,4.06,0,0,0-2.36,4.14c.18,4.61.07,9.23.05,13.84,0,1.66-.05,1.68-1.71,1.71-1.41,0-2.82,0-4.22,0-1.16.06-1.48-.46-1.46-1.53.05-2.35,0-4.7,0-7a1.55,1.55,0,0,0-.31-1.22c-2,.76-4.06,1.79-6.33,2-4.76.51-9-.59-11.82-4.62s-3-8.62-.92-13.14a9.82,9.82,0,0,1,5.46-4.9A21.52,21.52,0,0,1,257.32,229a9.22,9.22,0,0,0,2.56.23c.08-.13.23-.26.24-.4.3-3.92.3-3.92-3.65-3.92H238.63c-1.94,0-1.95,0-2-1.91,0-.94,0-1.88,0-2.82s.44-1.39,1.41-1.32c.54,0,1.09,0,1.64,0H376.77c3.12,0,2.89-.4,2.89,2.89,0,3.64.17,3.14-3.13,3.16-4,0-4,0-4,4,0,1.57,0,3.13,0,4.69,0,1.8,0,1.83-1.79,1.84-3.92,0-7.83,0-11.74,0a14.93,14.93,0,0,0-1.64,0,2,2,0,0,0-1.93,2.57c.34,2,1.24,2.75,3.41,2.49a43.07,43.07,0,0,1,6.32-.37,12.64,12.64,0,0,1,4.14.71,9,9,0,0,1,6.26,7.27,9.86,9.86,0,0,1-3.77,9.78,12.79,12.79,0,0,1-7.15,2.7c-9.82.75-17.7-2.89-23.55-10.84a1.87,1.87,0,0,1-.16-.53c1.72-1.42,3.75-2.43,5.72-3.77a18.81,18.81,0,0,0,11.3,8,13.37,13.37,0,0,0,7.18.25c2.3-.61,3.55-1.84,3.5-3.51s-1.76-3.26-4.05-3.54a10.52,10.52,0,0,0-4.63.47c-3.64,1.18-6.41-.17-8.74-2.89a12.36,12.36,0,0,1-3-6.24,6.6,6.6,0,0,1,2.55-6.66,11.34,11.34,0,0,1,6.92-2.51c2,0,4.07,0,6.11,0,1.08,0,1.52-.29,1.52-1.45,0-2.21-.16-2.52-2.58-2.51q-10.09.07-20.18.31a36.65,36.65,0,0,1-4.91-.28c-2-.22-2.29,0-2.29,2.11q0,15,0,30c0,.63,0,1.25,0,1.88,0,1.7-.05,1.76-1.66,1.74s-3.47.66-4.55-.29-.4-2.95-.41-4.48c-.05-9.31,0-18.61,0-27.92,0-.55,0-1.1,0-1.64a1.12,1.12,0,0,0-1.14-1.22,75.86,75.86,0,0,0-8,0,.69.69,0,0,0-.71.75c0,.63,0,1.25,0,1.88v29.8c0,.55,0,1.1,0,1.64.09,1.08-.29,1.59-1.46,1.53a35,35,0,0,0-4.22,0c-1.31.09-1.6-.54-1.57-1.67,0-2,0-4.07,0-6.1,0-1.74-.09-1.78-1.71-1.19a19.46,19.46,0,0,1-10.6,1,17.18,17.18,0,0,1-4.64-1.57,11.4,11.4,0,0,1-.64-19.83c4.53-2.68,9.48-2.93,14.55-2.3C309.44,229.15,310.35,229.34,311.49,229.53Zm-51.3,5.2c-.56.76-.58,1.62-1.62,1.22a11.63,11.63,0,0,0-2.53-.42,13,13,0,0,0-5.79.5c-2.85.87-4,2.68-3.78,5.65a4.84,4.84,0,0,0,4.66,4.71,10.67,10.67,0,0,0,7.65-2.36,3.16,3.16,0,0,0,1.44-3C260.1,239.06,260.19,237.05,260.19,234.73Zm44.11,11.89c-2.45-3.32-4.56-6.35-6.9-9.28-1.76,2.19-2.15,4.64-1,6.5C298.14,246.64,300.91,246.86,304.3,246.62Zm-.94-11.15c2.16,2.64,4.06,5,6,7.29.32.39.58,1,1.26.73a1.58,1.58,0,0,0,.95-1.49c0-1.55,0-3.1,0-4.65,0-.64-.35-.89-.92-1.14A13.86,13.86,0,0,0,303.36,235.47Z"/><path class="cls-1" d="M177.64,139.8,144,155c-.77-1.54-3.9-28.31-4.37-37.25l12.32,6.54c6.13-18.65,4.72-36.45-4.81-53.37S123.27,43.35,104.18,38.6L115,29.83l-10.18-8.17a70.25,70.25,0,0,1,24.56,8.39c22.73,12.81,36.79,32,41.8,57.63a78.84,78.84,0,0,1-3.37,42.47,6.53,6.53,0,0,1-.4,1.1c-.58,1.05-.25,1.67.75,2.27,2.56,1.51,5.06,3.11,7.56,4.71A4.64,4.64,0,0,1,177.64,139.8Z"/><path class="cls-1" d="M78.51,7.72l29,22.11L78.74,51.89a2.43,2.43,0,0,1-.44-2c0-3.37,0-6.73,0-10.09,0-1.54-.07-1.57-1.61-1.28a58.1,58.1,0,0,0-20,7.65C39.45,56.77,28.8,72,25,91.78a60.14,60.14,0,0,0,1.49,28.08c.19.66.39,1.31.69,2.38l-12.58-5-1.8,14.1a48.52,48.52,0,0,1-4.32-13.41c-8-41.64,17.45-82.17,57.19-94.34a50.56,50.56,0,0,1,10.75-2.27c1.18-.1,1.62-.56,1.6-1.75C78,15.7,78,11.88,78,8.05Z"/><path class="cls-1" d="M802.48,102.63v45.49c0,.55,0,1.1,0,1.64.09,1.08-.3,1.59-1.46,1.53-1.4-.07-2.81,0-4.22,0H775.93c-2.14,0-2.15,0-2.16-2.2V56.9c0-.55,0-1.1,0-1.64-.09-1.08.29-1.59,1.45-1.53,1.41.08,2.82,0,4.22,0h20.88c2.14,0,2.16,0,2.16,2.2Z"/><path class="cls-1" d="M52.8,138.18,41,145.74a6.65,6.65,0,0,0,1.92,2.58c10.34,10.25,22.57,16.9,37,19.29a61.39,61.39,0,0,0,12.85.66,3,3,0,0,1,2.56.77,40.58,40.58,0,0,0,22.2,11c-.24.6-.75.7-1.21.86A74.38,74.38,0,0,1,97.14,185a81.22,81.22,0,0,1-42.59-7.81A79,79,0,0,1,28.15,157c-2.18-2.57-1.84-2.54-4.95-.74-2.16,1.25-4.26,2.62-6.41,3.9a3.16,3.16,0,0,1-2.06.8c1.28-12.27,2.57-24.51,3.89-37.14C30,128.51,41.17,133.28,52.8,138.18Z"/><path class="cls-1" d="M457.31,251a54.79,54.79,0,0,1,2.52,5.41c.42.9-.3,1.08-.83,1.34a27.38,27.38,0,0,1-6.89,2.24,24.65,24.65,0,0,1-13.19-.77,14,14,0,0,1-7.74-19.81c2.41-4.38,6.48-6.42,11.2-7.32,3.17-.61,3.2-.55,3.17-3.87,0-3.82.54-3.32-3.38-3.34q-8.44,0-16.9,0c-1.89,0-1.91,0-1.93,2,0,2.35,0,4.7,0,7,0,1.15-.42,1.48-1.52,1.47-3.91,0-7.82,0-11.74,0-1,0-2,0-3,0-2.56.06-3.48,1.74-2.16,3.9a1.59,1.59,0,0,0,1.72.94c1-.17,2-.31,3-.52a14.59,14.59,0,0,1,10.65,1.57c6.85,3.91,7.24,12.5.81,17a14.13,14.13,0,0,1-4.2,2.05c-1.69.52-1.69.52-2.22-1.27-.05-.15-.07-.3-.11-.46-.26-1.2-1.13-2.38-.74-3.61s1.94-1.49,3-2c2.17-.95,2.15-4.69.42-5.77a8.78,8.78,0,0,0-2.32-1.09,12.14,12.14,0,0,0-7.6.46c-3.5,1.35-4.84,4.52-3.4,8a13.68,13.68,0,0,0,2.75,4.06,45.13,45.13,0,0,0,5.47,4.78,7,7,0,0,1,2,1.75c-1,1.31-2.37,2.23-3.47,3.43a1.45,1.45,0,0,1-2.2.25,30.38,30.38,0,0,1-8.73-8.09c-3.37-4.89-5.49-10.48-.27-17.29-.37-.57-.78-1.14-1.13-1.75-3.51-6,.33-12.87,7.35-13,2.81-.06,5.63,0,8.45,0,.6,0,1.45.26,1.72-.38a4.06,4.06,0,0,0,0-3c-.22-.6-.9-.5-1.44-.5-2.27,0-4.54,0-6.81,0-4.46,0-8.92,0-13.38,0-1.72,0-1.73,0-1.78-1.65,0-1.1,0-2.19,0-3.29,0-.79.34-1.14,1.12-1.11.47,0,.94,0,1.41,0h81.22c2.71,0,2.59-.22,2.6,2.49,0,3.7,0,3.7-3.79,3.54l-.47,0c-2.15,0-2.25,0-2.25,2.19q0,15.25,0,30.51c0,3.53.41,3.07-3.14,3.11-1,0-2,0-3,0-.78,0-1.15-.35-1.13-1.13,0-.55,0-1.1,0-1.65v-29.8c0-.55,0-1.1,0-1.64.09-1.06-.27-1.57-1.44-1.55-3,.06-6.1.07-9.15,0-1.32,0-1.57.6-1.56,1.72,0,3.28,0,6.57,0,9.85,0,1.93,0,1.91-1.9,1.78a19.48,19.48,0,0,0-9.87,1.4c-2.51,1.18-4.18,3-4.18,6a7.78,7.78,0,0,0,7,8.08,19.87,19.87,0,0,0,11.62-1.92c.5-.24,1-.51,1.46-.75C457,251,457.08,251,457.31,251Z"/><path class="cls-1" d="M504.38,235.73c3.21,1.08,6.27.63,9.31-.12.73-.18.9-.73.9-1.44,0-2.65,0-5.31,0-8,0-1.07-.5-1.3-1.44-1.32s-2.22.43-2.93-.29-.3-2.08-.32-3.15c0-2.87-.26-2.59,2.68-2.6h15.73c2.6,0,2.59,0,1.88-2.62a20.46,20.46,0,0,0-1.68-4.37c-1.89-3.53-4.68-4.82-8.59-4-2,.43-2,.43-2.89-1.47-1.5-3.35-.88-4.49,2.74-5.12,6.13-1.06,11,1.23,14,6.65a55.11,55.11,0,0,1,3.42,8.21c1,2.79.52,2.3,3.43,2.48,1.25.08,2.5.18,3.75.22.78,0,1.14.35,1.13,1.14,0,1.09,0,2.19,0,3.28a1.48,1.48,0,0,1-1.71,1.72c-1.17,0-2.34-.14-3.51-.12-1.7,0-1.87.19-1.88,1.89,0,6.26,0,12.51,0,18.77,0,4.22,0,8.45,0,12.67,0,2.9-.07,2.45-2.6,2.48-1,0-2,0-3,0-1.18.08-1.71-.31-1.65-1.58.08-1.79,0-3.59,0-5.39v-26c0-.62,0-1.25,0-1.87a.79.79,0,0,0-.88-.86h-7.27a.9.9,0,0,0-1,1c0,.63,0,1.25,0,1.88v29.79c0,.62,0,1.25,0,1.88,0,.9-.44,1.24-1.31,1.19-1.86-.1-4.15.73-5.48-.32s-.41-3.37-.45-5.13c-.09-3.91,0-7.82,0-11.73,0-1.53-.08-1.55-1.62-1.48-.32,0-.63.07-.94.1l-3.61.35c-.38.45-.21.83-.15,1.2,1,6.49-3,11.44-9.53,11.85a15.71,15.71,0,0,1-13-5.41,31.12,31.12,0,0,1-4.59-6.78c-.74-1.38-1.46-2.76-2.15-4.17-1.65-3.4-1.77-2.66,1.69-4,1.07-.42,2.22-1.34,3.28-1s1.08,1.95,1.58,3a36.45,36.45,0,0,0,4.3,7.5c1.66,2,3.57,3.71,6.33,4.11a6.69,6.69,0,0,0,2.32-.06c2.08-.45,3-1.5,2.9-3.61a8.55,8.55,0,0,0-2.37-5.48,3.33,3.33,0,0,0-3.22-.88c-2.14.27-2.45,0-2.74-2.09a2.56,2.56,0,0,1,0-.47c.06-1.09-.82-2.29-.21-3.17s1.91-.3,2.87-.61a9.34,9.34,0,0,0,4.12-2.12A3,3,0,0,0,498.4,225a11.05,11.05,0,0,0-5.56.34c-1.36.35-2.7.79-4,1.17-1.08.3-1.84,0-2.09-1.2-.08-.38-.19-.75-.3-1.13-.82-3.06-.84-3.09,2-4.39a16.78,16.78,0,0,1,13.21-.78c5.4,2,7.13,7,5.85,12a6.09,6.09,0,0,1-1.41,2.41A7,7,0,0,0,504.38,235.73Z"/><path class="cls-1" d="M749.15,226.82c-.46-1.87-.83-3.62-1.33-5.34a1.05,1.05,0,0,1,.64-1.48c5.08-2.19,10.25-2.9,15.47-.65s6.88,6.86,4.73,12a24.12,24.12,0,0,1-2.49,4.25,13.93,13.93,0,0,0,7,.6c3.49-.36,3.5-.4,3.49-4,0-1.88-.08-3.75-.11-5.63,0-1.13-.43-1.64-1.69-1.67-3-.09-3-.16-3-3.06,0-3.39-.44-3,3-3,5.09,0,10.18,0,15.26,0a4.39,4.39,0,0,0,2.52-.34c-.87-3.11-1.68-6.27-3.95-8.78a6.46,6.46,0,0,0-6.44-1.89c-1,.2-2,.51-3.09.81a21.15,21.15,0,0,0-1.12-4.24c-.57-1.37,0-2.22,1.35-2.73a13.7,13.7,0,0,1,15,4.52,29.82,29.82,0,0,1,3.74,7.8,23.24,23.24,0,0,1,1,3.14,1.79,1.79,0,0,0,2.15,1.59c1.4,0,2.81.13,4.22.11,1,0,1.36.27,1.43,1.32.32,4.69.35,4.69-4.36,4.76-2.12,0-2.14,0-2.15,2.24v29.1c0,.78,0,1.56,0,2.35,0,2,0,2-2.08,2.06-1.25,0-2.51,0-3.76,0s-1.54-.45-1.45-1.53c0-.54,0-1.09,0-1.64V227.68c0-.54,0-1.09,0-1.64,0-.78-.3-1.14-1.1-1.14-2.51,0-5,0-7.51,0-.89,0-1.29.4-1.25,1.28,0,.55,0,1.09,0,1.64v29.81c0,.55,0,1.1,0,1.64.07,1-.32,1.43-1.35,1.39a33.5,33.5,0,0,0-3.75,0c-1.31.09-1.56-.54-1.56-1.68,0-4.69,0-9.38,0-14.08,0-.54,0-1.09,0-1.64,0-.77-.35-1.15-1.15-1.08s-1.41.09-2.11.17c-1,.12-2.22-.25-3,.45s0,1.78,0,2.7c-.06,5.43-3.89,9.49-9.61,9.92a15.08,15.08,0,0,1-13.21-5.28,50.09,50.09,0,0,1-6.81-10.65c-1.18-2.42-.53-3.77,2.06-4.57s3.45-.46,4.65,2c1.43,2.94,2.58,6,4.88,8.5,1.83,1.95,3.89,3.39,6.72,3.3,3.13-.11,4.55-1.86,4-4.95a6.91,6.91,0,0,0-1.34-3c-1.41-1.82-3.14-2.86-5.49-1.94-.91.36-1.32.13-1.43-.79-.19-1.56-.38-3.11-.58-4.66-.1-.78.21-1.16,1-1.18a12.74,12.74,0,0,0,4.62-.68,3.87,3.87,0,0,0,2.39-2.09c.9-2.23-.06-4.12-2.42-4.56a15.47,15.47,0,0,0-7.38.85C751.34,226.08,750.32,226.44,749.15,226.82Z"/><path class="cls-1" d="M606.85,234.59a5.61,5.61,0,0,0,2.66-.8,11.08,11.08,0,0,1,6.67-.58c4,1,5.93,3.91,6.78,7.64,1.14,5,0,9.8-2.07,14.35-1.13,2.44-3.07,2.91-5.46,1.61a8.41,8.41,0,0,1-2.57-2.05,19.79,19.79,0,0,0,3.35-9.21,13,13,0,0,0,0-2.57c-.38-3.17-2.65-4.44-5.56-3.09a15.63,15.63,0,0,0-2.17,1.39,3.68,3.68,0,0,0-1.67,3.37c.09,4.61.05,9.23,0,13.84,0,2.14,0,2.2-2.22,2.14-1.62,0-3.65.71-4.73-.4s-.25-3-.31-4.53,0-3.11,0-4.64c-1-.31-1.61.36-2.3.64a15.27,15.27,0,0,1-12.52,0c-8.13-3.7-8.26-14.72-2.71-19.3,4.81-4,10.43-4.18,16.25-3a1,1,0,0,1,.89,1.18c0,.39,0,.78,0,1.17-.09,1.39.6,3.24-.32,4.05s-2.63-.09-4-.25a13,13,0,0,0-6,.65c-2.64.95-3.74,3-3.29,6,.4,2.66,2,4.07,4.8,4.19a12.67,12.67,0,0,0,8.24-2.86,2.31,2.31,0,0,0,1-2c0-5,0-10,0-15,0-1.46-.1-1.51-1.93-1.52-6.41,0-12.83,0-19.24,0-3.49,0-3.06.38-3.07-3.18,0-3.2-.3-2.86,2.91-2.87H597a6.47,6.47,0,0,0-4.92-3.28,10.81,10.81,0,0,0-6.19.89c-1.06.47-1.55.19-1.78-.92-.27-1.3-.59-2.59-1-3.87-.32-1.08.06-1.5,1.12-1.79a16.66,16.66,0,0,1,9-.39c.41.11.88.34,1.3-.07a3.62,3.62,0,0,0-4.14-2.1c-1,.19-2,.57-3,.72-1.56.24-2.1-.17-2.53-1.68q-.13-.45-.24-.9c-.8-3.61-.69-3.77,3.09-4.3,6.16-.87,10.39,1.14,13.63,6.49a55.14,55.14,0,0,1,4,9.21c.74,2,.75,2,2.82,2h17.13c2,0,2,0,2,1.85,0,5.15.65,4.13-4.16,4.19s-9.55,0-14.32,0c-2.14,0-2.15,0-2.16,2.24C606.84,229.63,606.85,232.11,606.85,234.59Zm-11.56-24.76-.16-.3c0,.05-.15.11-.14.15a1.35,1.35,0,0,0,.14.3Z"/><path class="cls-1" d="M710.3,249.36c-2,.45-3.64,1.28-5.48,1.63a14.51,14.51,0,0,1-8.27-.86c-3.49-1.39-5.4-4.11-6.27-7.65a31.53,31.53,0,0,1-.54-7.93c0-2.66,0-5.32.11-8,0-1.18-.41-1.75-1.64-1.66a14.74,14.74,0,0,1-1.88,0c-1.73-.07-1.74-.08-1.77-1.9,0-1,0-2,0-3.05,0-.81.36-1.13,1.14-1.11.46,0,.93,0,1.4,0h51.14c2.7,0,2.6-.2,2.57,2.51,0,4.11.5,3.49-3.41,3.54-3.54.06-3.09-.41-3.09,3.14q0,14.9,0,29.78c0,.55,0,1.1,0,1.64,0,.94-.44,1.22-1.3,1.2-1.56,0-3.13,0-4.69,0-1,0-1.35-.44-1.34-1.41,0-3,0-5.94,0-8.91,0-7.74,0-15.48,0-23.22,0-2,0-2-2-2.08-1.79,0-3.59-.15-5.39-.12-2.17.05-2.35.26-2.35,2.5q0,14.78,0,29.55c0,3.68,0,3.7-3.76,3.68-3.35,0-2.92.39-3-3C710.4,254.92,710.61,252.2,710.3,249.36Zm-13.15-15.51c0,2.11,0,4.22,0,6.34,0,2.67.58,3.26,3.17,4.08,3.78,1.2,6.66-.63,9.54-2.59.6-.41.6-1,.6-1.68,0-4.53,0-9.06,0-13.6,0-1.1-.37-1.53-1.49-1.52-3.44,0-6.88.07-10.32,0-1.33,0-1.54.61-1.53,1.71C697.18,229,697.15,231.43,697.15,233.85Z"/><path class="cls-1" d="M789,10a21.76,21.76,0,0,1,9.8,3.06c5.29,3.14,7.56,8.09,6.76,14.35-1,8-6.33,13-14.73,13.9-6.11.65-11.7-.81-16.12-5.36a13.79,13.79,0,0,1-3.85-11.85C771.94,15.7,778.6,10,789,10Z"/><path class="cls-1" d="M644.14,230.79c-.38,1.43-.66,2.56-1,3.67-.54,1.79-.7,2-2.6,2a11.65,11.65,0,0,1-10.25-5.15c-3.73-5.54-.08-12.49,6.84-13.23,7.91-.84,14.08,4.65,14.21,12.58a17.29,17.29,0,0,1-6,13.71c-1.35,1.23-1.36,1.23-.09,2.68,2.16,2.47,4.34,4.92,6.49,7.4,1.43,1.65,1.37,2.71-.19,4.22a8.49,8.49,0,0,1-1.1.88c-2.33,1.61-2.84,1.49-4.41-.84a61.79,61.79,0,0,0-6.78-8.36,5.51,5.51,0,0,0-5.2-2,6.92,6.92,0,0,1-3.25-.19,5,5,0,0,1-3.53-5.41,4.49,4.49,0,0,1,4.42-4.06,7,7,0,0,1,5.11,1.28,2.25,2.25,0,0,0,3,0,10.34,10.34,0,0,0,4.34-10.85,5.64,5.64,0,0,0-6.19-4.56c-1,0-1.93.11-2.16,1.33a2.58,2.58,0,0,0,1,2.91,9.82,9.82,0,0,0,3.71,1.38C641.6,230.38,642.76,230.55,644.14,230.79Z"/><path class="cls-1" d="M657.36,242.62c0-5.24,0-10.48,0-15.72,0-2,0-2-1.9-2-3.35-.09-3.35-.09-3.34-3.38,0-.47,0-.94,0-1.41,0-.87.28-1.28,1.2-1.27,5.71,0,11.43,0,17.14,0,1,0,1.38.44,1.34,1.41s0,1.88,0,2.82c-.07,1.58-.36,1.87-2,1.89-1,0-2-.12-3-.12-1.88,0-2,.15-2.06,2,0,.78,0,1.56,0,2.35v28.63c0,.55,0,1.09,0,1.64,0,.9-.37,1.26-1.26,1.25-1.57,0-3.13-.05-4.7,0-1,0-1.38-.38-1.37-1.38,0-2.81,0-5.63,0-8.44Z"/><path class="cls-1" d="M556.84,258.11a17.14,17.14,0,0,1-6,12.95,6.29,6.29,0,0,1-.93.7c-1.11.69-2.3,1.11-3.52.38s-1.45-2.14-1.62-3.47c-.1-.83.62-1,1.13-1.3a11.39,11.39,0,0,0,3.67-3.54,5.67,5.67,0,0,0,.87-1.9c.17-.78.08-1.28-.79-1.65-2.18-.92-3-2.6-2.58-5a4.42,4.42,0,0,1,4.06-3.59,4.64,4.64,0,0,1,5.14,2.78A8.78,8.78,0,0,1,556.84,258.11Z"/><path class="cls-1" d="M824.75,212.89c4.15,0,4.1,0,3.76,4.1s-.53,8.08-.79,12.12c-.05.78-.14,1.55-.21,2.33a1,1,0,0,1-1,1.05c-4,.62-4.53.22-4.77-3.83-.25-4.27-.56-8.54-.84-12.81,0-.62-.06-1.25-.1-1.87-.05-.8.35-1.12,1.12-1.1C822.88,212.91,823.81,212.89,824.75,212.89Z"/><path class="cls-1" d="M813,212.88c4,0,4,0,3.66,4.17-.34,4.44-.54,8.9-.88,13.34-.16,2.1.15,2.14-2.37,2.08-3.17-.06-3.15.85-3.4-3.29s-.54-8.11-.81-12.17c-.05-.85-.12-1.71-.13-2.57,0-1.5,0-1.51,1.59-1.55C811.44,212.86,812.22,212.88,813,212.88Z"/><path class="cls-1" d="M355.88,268.47a5.08,5.08,0,0,1,5-4.88,4.62,4.62,0,0,1,4.19,4.54,4.93,4.93,0,0,1-4.77,4.82A4.46,4.46,0,0,1,355.88,268.47Z"/><path class="cls-3" d="M706.19,75.73c6.27.09,13,3.49,17.16,10.8,6,10.42,6.2,21.21.27,31.7-4.71,8.34-12.39,11.62-21.78,10.73-10.56-1-17-7.18-20.16-17a31.43,31.43,0,0,1,.6-21.15C686,81.07,693.69,75.75,706.19,75.73Z"/><path class="cls-3" d="M586.28,110c3.92,0,7.83,0,11.74,0,1.65,0,1.68,0,1.66,1.71a43.9,43.9,0,0,1-.48,7.24,15.15,15.15,0,0,1-7.83,11.12,25,25,0,0,1-19.75,2,13.85,13.85,0,0,1-4.54-2.39c-4.32-3.23-4.86-10.27-1.84-13.89a19,19,0,0,1,5.52-4.67,9,9,0,0,1,4.49-1.11C578.93,110,582.61,110,586.28,110Z"/><path class="cls-3" d="M260.19,234.73c0,2.32-.09,4.33,0,6.33a3.16,3.16,0,0,1-1.44,3,10.67,10.67,0,0,1-7.65,2.36,4.84,4.84,0,0,1-4.66-4.71c-.24-3,.93-4.78,3.78-5.65a13,13,0,0,1,5.79-.5,11.63,11.63,0,0,1,2.53.42C259.61,236.35,259.63,235.49,260.19,234.73Z"/><path class="cls-3" d="M304.3,246.62c-3.39.24-6.16,0-7.89-2.78-1.16-1.86-.77-4.31,1-6.5C299.74,240.27,301.85,243.3,304.3,246.62Z"/><path class="cls-3" d="M303.36,235.47a13.86,13.86,0,0,1,7.29.74c.57.25.92.5.92,1.14,0,1.55,0,3.1,0,4.65a1.58,1.58,0,0,1-.95,1.49c-.68.31-.94-.34-1.26-.73C307.42,240.44,305.52,238.11,303.36,235.47Z"/><path class="cls-3" d="M595.29,209.83l-.16.15a1.35,1.35,0,0,1-.14-.3s.09-.1.14-.15Z"/><path class="cls-3" d="M697.15,233.85c0-2.42,0-4.84,0-7.27,0-1.1.2-1.73,1.53-1.71,3.44.08,6.88,0,10.32,0,1.12,0,1.5.42,1.49,1.52,0,4.54,0,9.07,0,13.6,0,.64,0,1.27-.6,1.68-2.88,2-5.76,3.79-9.54,2.59-2.59-.82-3.17-1.41-3.17-4.08C697.14,238.07,697.15,236,697.15,233.85Z"/></svg>